<?xml version="1.0" encoding="UTF-8"?>
<svg id="Layer_1" data-name="Layer 1" xmlns="http://www.w3.org/2000/svg" viewBox="0 0 198.83 95.28">
  <defs>
    <style>
      .cls-1 {
        fill: #fff;
        stroke: #fff;
        stroke-miterlimit: 10;
        stroke-width: 2px;
      }
    </style>
  </defs>
  <path class="cls-1" d="M67.74,85.5c-3.22,2.92-6.36,6.05-9.75,8.77H17.11c-21.54-2.03-14.85-24.22-15.94-37.98.06-1.22.68-2.1,2.06-2.25,1.98-.22,6.98-.18,9,0,1.33.12,2.13.6,2.26,1.88.71,7.08-.77,15.32,0,22.38.24,2.27,2.12,3.93,4.59,4.07l33.99-.04L141.4,1.1l40.19-.1c9.77.6,15.45,7.26,15.94,15.97.33,5.85.45,14.25,0,20.04-.16,2.11-.57,3.14-3.03,3.34-1.94.15-5.49.15-7.44,0-.86-.07-2.23-.25-2.53-1.09l-.1-22.27c-.42-1.94-2.24-3.57-4.4-3.7l-33.21.04c-26.45,23.97-52.61,48.23-79.08,72.19h0Z"/>
  <path class="cls-1" d="M88.29,29.98c1.08.97,3.5,2.74,4.23,3.76.13.17.24.31.2.54l-9.3,8.22-31.59-29.13-33.32-.07c-2.08.34-3.76,1.92-4.01,3.88-.83,6.61.66,14.58-.01,21.28-.06.63-.26,1.18-.91,1.5-1.12.55-7.08.48-8.59.39-2.72-.16-3.59-.5-3.81-3.16C1.93,23.75-3.69,2.82,17.11,1h39.51c10.71,9.47,21.06,19.38,31.67,28.98h0Z"/>
  <path class="cls-1" d="M110.18,58.44c1.47-1.33,3.35-2.6,4.43-4.21h.28s30.75,28.1,30.75,28.1l34.18.03c2.57-.24,4.09-1.81,4.58-4.07l.12-23.16c.35-.65.96-1.01,1.75-1.1,2.91-.32,6.67.15,9.65.12,1.34.43,1.51,1.68,1.6,2.85.59,7.57-.29,15.99-.23,23.62-1.22,7.79-7.32,13.13-15.91,13.65l-41.62-.05-34.08-31.35c-.18-.21-.02-.3.1-.45.79-1.06,2.78-2.38,3.83-3.32.24-.21.36-.49.55-.66h0Z"/>
</svg>