<?xml version="1.0" encoding="UTF-8"?>
<svg width="1080" height="1080" viewBox="0 0 1080 1080" xmlns="http://www.w3.org/2000/svg">
  <!-- Safari pinned tab icon - 100% black fill required -->
  <!-- Simplified infinity/boxing gloves symbol -->
  <path fill="#000000" d="M 250 400
    L 250 550
    C 250 620, 290 680, 350 680
    L 430 680
    L 540 540
    L 650 680
    L 730 680
    C 790 680, 830 620, 830 550
    L 830 400
    C 830 330, 790 270, 730 270
    L 650 270
    L 540 410
    L 430 270
    L 350 270
    C 290 270, 250 330, 250 400
    Z
    M 295 440
    C 295 400, 315 370, 350 370
    L 390 370
    L 480 480
    L 540 540
    L 600 480
    L 690 370
    L 730 370
    C 765 370, 785 400, 785 440
    L 785 510
    C 785 550, 765 580, 730 580
    L 690 580
    L 600 480
    L 540 420
    L 480 480
    L 390 580
    L 350 580
    C 315 580, 295 550, 295 510
    L 295 440
    Z"/>
</svg>
